PathFileType	4	(X/Y/Z)	C:/Users/beibeiliu/ov580/test_trc/User3\sequence.7_training_dense_left.trc
DataRate	CameraRate	NumFrames	NumMarkers	Units	OrigDataRate	OrigDataStartFrame	OrigNumFrames
120	120	7	19	mm	120	27	80
Frame#	Time	ThumbCMC			ThumbMCP			ThumbIP			ThumbTip			IndexMCP			IndexPIP			IndexTip			MiddleMCP			MiddlePIP			MiddleTip			RingMCP			RingPIP			RingTip			PinkyMCP			PinkyPIP			PinkyTip			BackHand1			BackHand2			BackHand3	
		X0	Y0	Z0	X1	Y1	Z1	X2	Y2	Z2	X3	Y3	Z3	X4	Y4	Z4	X5	Y5	Z5	X6	Y6	Z6	X7	Y7	Z7	X8	Y8	Z8	X9	Y9	Z9	X10	Y10	Z10	X11	Y11	Z11	X12	Y12	Z12	X13	Y13	Z13	X14	Y14	Z14	X15	Y15	Z15	X16	Y16	Z16	X17	Y17	Z17	X18	Y18	Z18	
26	0.216667	-152.233	74.7437	-25.82	-151.45	93.9364	-47.6292	-155.17	112.071	-67.9117	-155.086	125.462	-85.1794	-189.365	88.3549	-85.4927	-169.951	65.8971	-100.543	-160.189	58.3126	-70.2776	-200.803	64.7933	-90.3474	-173.265	50.5302	-95.6237	-167.296	44.4787	-57.4364	-202.065	49.9254	-85.2549	-175.604	31.8077	-83.8886	-169.997	34.2705	-49.8763	-209.593	31.5111	-77.6653	-182.03	22.5653	-75.5028	-176.767	19.2052	-47.3785	-217.328	50.0832	-29.9131	-201.012	36.3172	-0.423566	-187.085	70.7979	-16.0895	
27	0.225	-151.572	64.4378	-39.0576	-141.389	77.5725	-64.5561	-140.398	95.339	-92.1165	-134.871	103.711	-111.049	-187.323	77.6016	-98.9386	-166.439	50.8092	-109.449	-164.197	45.2883	-77.6437	-197.34	61.4279	-101.947	-179.733	34.5451	-101.968	-171.979	41.0802	-60.6858	-209.256	44.9251	-91.6272	-185.573	22.35	-86.4016	-178.989	26.9895	-56.7446	-218.766	31.3528	-83.4827	-195.808	18.1166	-81.0404	-189.519	21.6272	-50.7117	-213.865	62.0059	-38.3945	-204.181	47.1637	-9.54652	-185.665	74.6394	-30.7745	
28	0.233333	-148.511	55.6995	-52.5674	-141.687	54.4166	-76.6659	-133.915	60.691	-106.083	-126.901	62.4281	-125.721	-182.388	55.5321	-115.228	-170.912	26.0428	-115.707	-166.759	31.2699	-79.3057	-196.644	46.2958	-110.091	-180.203	15.303	-104.519	-177.537	25.4222	-69.7965	-207.905	30.7066	-99.915	-188.997	8.54319	-88.8566	-182.364	20.3781	-60.5733	-220.072	25.1595	-88.7217	-201.123	5.5346	-77.5382	-196.029	18.2498	-50.515	-218.423	62.6609	-53.7876	-204.948	55.4058	-19.2431	-182.574	72.4155	-43.1395	
29	0.241667	-147.841	38.8024	-51.7625	-139.467	31.8696	-79.4327	-122.122	29.2284	-104.102	-113.496	23.7855	-122.532	-177.812	30.6427	-118.075	-166.711	-0.994065	-111.745	-161.855	12.9913	-79.1642	-196.06	19.5082	-114.6	-182.292	-7.29263	-100.253	-177.568	15.2257	-65.8966	-206.188	12.944	-101.366	-193.223	-8.47991	-84.2502	-188.836	8.79062	-56.976	-218.243	10.938	-90.1384	-202.666	-7.77157	-73.5848	-198.214	12.0366	-51.3071	-210.328	55.1511	-62.5447	-205.456	53.4513	-32.2318	-178.116	62.6196	-53.6056	
30	0.25	-152.406	23.7825	-48.3011	-133.148	10.5348	-68.5315	-120.4	-0.777081	-86.5502	-104.559	-8.91185	-103.083	-163.367	-1.91584	-112.952	-162.371	-27.4071	-97.0036	-163.577	-4.85068	-66.907	-187.587	-4.88428	-107.597	-179.087	-30.6736	-85.7672	-179.097	-3.91289	-59.0442	-200.354	-12.1334	-97.2902	-193.454	-27.3459	-70.5213	-185.143	-1.95471	-51.8017	-214.697	-12.1378	-86.9311	-204.532	-24.2418	-65.9382	-199.991	1.9951	-44.3149	-212.866	40.0951	-72.9911	-210.521	45.6656	-38.5525	-179.047	48.0905	-58.304	
31	0.258333	-151.079	15.6578	-32.2197	-127.612	-1.11491	-44.117	-109.943	-11.9391	-56.9813	-88.3223	-19.0365	-62.5157	-148.768	-24.7167	-92.6965	-143.5	-44.0443	-69.4173	-152.163	-16.6688	-49.4161	-166.287	-32.3343	-91.1796	-162.296	-46.1371	-62.5885	-169.06	-11.9848	-43.3243	-187.429	-32.922	-82.5845	-180.188	-44.1508	-56.6753	-181.285	-14.2937	-38.3026	-204.232	-33.2179	-77.2507	-194.919	-39.9997	-49.0454	-195.756	-15.7825	-35.63	-204.214	19.7347	-73.8576	-209.509	31.9318	-41.7915	-171.867	32.6964	-55.064	
32	0.266667	-147.4	16.8986	-21.0519	-123.224	4.17172	-24.8762	-95.9043	-2.60756	-29.7868	-77.0128	-7.67994	-33.4003	-125.766	-24.7991	-70.5031	-124.783	-43.3477	-42.2433	-142.625	-16.7981	-31.7259	-145.694	-39.1844	-71.1019	-141.102	-51.0645	-39.8726	-156.92	-15.7838	-28.5202	-161.1	-44.1027	-65.4317	-160.118	-50.8885	-35.634	-170.071	-20.8801	-22.9872	-180.955	-49.6164	-60.1016	-172.046	-46.0167	-33.6904	-182.486	-18.5757	-23.3867	-192.542	1.59771	-70.4548	-205.848	18.3545	-42.0794	-173.07	22.7928	-48.9792	
